<?xml version="1.0" standalone="no"?><!DOCTYPE svg PUBLIC "-//W3C//DTD SVG 1.1//EN" "http://www.w3.org/Graphics/SVG/1.1/DTD/svg11.dtd"><svg id="svg-radial" width="300" height="300" version="1.1" xmlns="http://www.w3.org/2000/svg" xmlns:xlink="http://www.w3.org/1999/xlink"><defs class="svg-crowbar"><style type="text/css"><![CDATA[
#radial { display: inline; }
#rect { display: inline; }
#svg-radial { border: 1px solid black; background-color: rgb(255, 255, 153); background-position: initial initial; background-repeat: initial initial; }
#svg-rect { border: 1px solid black; }
.radial-angles { stroke: #800080; stroke-width: 2px; fill: none; }
.radial-circles { stroke: #008000; stroke-width: 2px; fill: none; }
.central-circle { fill: #66ffff; }
.circle { stroke: #ff0000; stroke-width: 3px; }
.rect { stroke: none; }
.axis { stroke: #000000; stroke-width: 2px; }
#outer-rect { stroke: none; fill: #ffff99; }
.tick { stroke: #000000; stroke-width: 2px; }]]></style></defs><g><g><line class="radial-angles" x1="150" y1="150" x2="351.7495535891872" y2="215.55240366732318"></line><line class="radial-angles" x1="150" y1="150" x2="321.6184208453053" y2="274.688081333236"></line><line class="radial-angles" x1="150" y1="150" x2="274.688081333236" y2="321.6184208453053"></line><line class="radial-angles" x1="150" y1="150" x2="215.55240366732318" y2="351.7495535891872"></line><line class="radial-angles" x1="150" y1="150" x2="150" y2="362.13203435596427"></line><line class="radial-angles" x1="150" y1="150" x2="84.44759633267685" y2="351.74955358918726"></line><line class="radial-angles" x1="150" y1="150" x2="25.311918666763987" y2="321.6184208453053"></line><line class="radial-angles" x1="150" y1="150" x2="-21.61842084530528" y2="274.688081333236"></line><line class="radial-angles" x1="150" y1="150" x2="-51.7495535891872" y2="215.55240366732318"></line><line class="radial-angles" x1="150" y1="150" x2="-62.132034355964265" y2="150.00000000000003"></line><line class="radial-angles" x1="150" y1="150" x2="-51.74955358918723" y2="84.44759633267687"></line><line class="radial-angles" x1="150" y1="150" x2="-21.618420845305337" y2="25.311918666763987"></line><line class="radial-angles" x1="150" y1="150" x2="25.311918666763944" y2="-21.61842084530528"></line><line class="radial-angles" x1="150" y1="150" x2="84.44759633267681" y2="-51.7495535891872"></line><line class="radial-angles" x1="150" y1="150" x2="149.99999999999997" y2="-62.132034355964265"></line><line class="radial-angles" x1="150" y1="150" x2="215.55240366732312" y2="-51.74955358918723"></line><line class="radial-angles" x1="150" y1="150" x2="274.68808133323597" y2="-21.618420845305337"></line><line class="radial-angles" x1="150" y1="150" x2="321.6184208453053" y2="25.311918666763916"></line><line class="radial-angles" x1="150" y1="150" x2="351.7495535891872" y2="84.4475963326768"></line><line class="radial-angles" x1="150" y1="150" x2="362.13203435596427" y2="149.99999999999994"></line></g><g><circle class="radial-circles" cx="150" cy="150" r="60"></circle><circle class="radial-circles" cx="150" cy="150" r="70"></circle><circle class="radial-circles" cx="150" cy="150" r="80"></circle><circle class="radial-circles" cx="150" cy="150" r="90"></circle><circle class="radial-circles" cx="150" cy="150" r="100"></circle><circle class="radial-circles" cx="150" cy="150" r="110"></circle><circle class="radial-circles" cx="150" cy="150" r="120"></circle><circle class="radial-circles" cx="150" cy="150" r="130"></circle><circle class="radial-circles" cx="150" cy="150" r="140"></circle><circle class="radial-circles" cx="150" cy="150" r="150"></circle></g><circle class="central-circle circle" cx="150" cy="150" r="50"></circle></g></svg>