<?xml version="1.0" standalone="no"?><!DOCTYPE svg PUBLIC "-//W3C//DTD SVG 1.1//EN" "http://www.w3.org/Graphics/SVG/1.1/DTD/svg11.dtd"><svg id="svg-rect" width="300" height="300" version="1.1" xmlns="http://www.w3.org/2000/svg" xmlns:xlink="http://www.w3.org/1999/xlink"><defs class="svg-crowbar"><style type="text/css"><![CDATA[
#radial { display: inline; }
#rect { display: inline; }
#svg-radial { border: 1px solid black; background-color: rgb(255, 255, 153); background-position: initial initial; background-repeat: initial initial; }
#svg-rect { border: 1px solid black; }
.radial-angles { stroke: #800080; stroke-width: 2px; fill: none; }
.radial-circles { stroke: #008000; stroke-width: 2px; fill: none; }
.central-circle { fill: #66ffff; }
.circle { stroke: #ff0000; stroke-width: 3px; }
.rect { stroke: none; }
.axis { stroke: #000000; stroke-width: 2px; }
#outer-rect { stroke: none; fill: #ffff99; }
.tick { stroke: #000000; stroke-width: 2px; }]]></style></defs><g transform="translate(10,10)"><rect class="central-circle" y="20" width="86.66666666666667" height="260"></rect><g transform="translate(86.66666666666667,20)"><rect id="outer-rect" width="173.33333333333331" height="260"></rect><g><line class="radial-angles" x2="173.33333333333331" y1="0" y2="0"></line><line class="radial-angles" x2="173.33333333333331" y1="13" y2="13"></line><line class="radial-angles" x2="173.33333333333331" y1="26" y2="26"></line><line class="radial-angles" x2="173.33333333333331" y1="39" y2="39"></line><line class="radial-angles" x2="173.33333333333331" y1="52" y2="52"></line><line class="radial-angles" x2="173.33333333333331" y1="65" y2="65"></line><line class="radial-angles" x2="173.33333333333331" y1="78" y2="78"></line><line class="radial-angles" x2="173.33333333333331" y1="91" y2="91"></line><line class="radial-angles" x2="173.33333333333331" y1="104" y2="104"></line><line class="radial-angles" x2="173.33333333333331" y1="117.00000000000001" y2="117.00000000000001"></line><line class="radial-angles" x2="173.33333333333331" y1="130" y2="130"></line><line class="radial-angles" x2="173.33333333333331" y1="143" y2="143"></line><line class="radial-angles" x2="173.33333333333331" y1="156" y2="156"></line><line class="radial-angles" x2="173.33333333333331" y1="169" y2="169"></line><line class="radial-angles" x2="173.33333333333331" y1="182" y2="182"></line><line class="radial-angles" x2="173.33333333333331" y1="195" y2="195"></line><line class="radial-angles" x2="173.33333333333331" y1="208" y2="208"></line><line class="radial-angles" x2="173.33333333333331" y1="221" y2="221"></line><line class="radial-angles" x2="173.33333333333331" y1="234.00000000000003" y2="234.00000000000003"></line><line class="radial-angles" x2="173.33333333333331" y1="247" y2="247"></line></g><g><line class="radial-circles" x1="17.333333333333336" x2="17.333333333333336" y2="260"></line><line class="radial-circles" x1="34.66666666666667" x2="34.66666666666667" y2="260"></line><line class="radial-circles" x1="52.00000000000001" x2="52.00000000000001" y2="260"></line><line class="radial-circles" x1="69.33333333333334" x2="69.33333333333334" y2="260"></line><line class="radial-circles" x1="86.66666666666669" x2="86.66666666666669" y2="260"></line><line class="radial-circles" x1="104.00000000000001" x2="104.00000000000001" y2="260"></line><line class="radial-circles" x1="121.33333333333334" x2="121.33333333333334" y2="260"></line><line class="radial-circles" x1="138.66666666666669" x2="138.66666666666669" y2="260"></line><line class="radial-circles" x1="156.00000000000003" x2="156.00000000000003" y2="260"></line><line class="radial-circles" x1="173.33333333333337" x2="173.33333333333337" y2="260"></line></g></g><line class="circle" x1="86.66666666666667" x2="86.66666666666667" y1="20" y2="280"></line><line class="axis" x1="-5" x2="280" y1="280" y2="280"></line><line class="axis" y2="285"></line><line class="tick" x1="-4" x2="4" y1="20" y2="20"></line><line class="tick" x1="86.66666666666667" x2="86.66666666666667" y1="276" y2="284"></line><line class="tick" x1="260" x2="260" y1="276" y2="284"></line></g></svg>